<svg width="30" height="29" viewBox="0 0 30 29" fill="none" xmlns="http://www.w3.org/2000/svg">
<g filter="url(#filter0_i_17_130)">
<path d="M13.1487 7.79917L11.275 2.70991C11.0073 2.17419 10.3114 1.4242 9.66894 2.70991C9.02653 3.99561 8.15213 6.63846 7.79523 7.79917L2.70942 9.94201C2.17408 10.2099 1.42459 10.8527 2.70942 11.2813C3.99426 11.7099 6.63531 12.8884 7.79523 13.4241L9.66894 18.5134C9.93662 19.1384 10.6326 20.0134 11.275 18.5134C11.9174 17.0134 12.7918 14.6741 13.1487 13.692C13.4407 12.8884 14.5883 12.1608 15.5578 12.8884C16.6285 13.692 17.1638 14.9368 11.8103 25.651C11.6319 26.4546 11.6497 27.7403 13.1487 26.4546C14.6477 25.1688 22.8482 11.6384 28.1125 2.70991" stroke="#333333" stroke-width="2.1597" stroke-linecap="round"/>
</g>
<defs>
<filter id="filter0_i_17_130" x="0.92041" y="0.920197" width="28.2721" height="28.5623" filterUnits="userSpaceOnUse" color-interpolation-filters="sRGB">
<feFlood flood-opacity="0" result="BackgroundImageFix"/>
<feBlend mode="normal" in="SourceGraphic" in2="BackgroundImageFix" result="shape"/>
<feColorMatrix in="SourceAlpha" type="matrix" values="0 0 0 0 0 0 0 0 0 0 0 0 0 0 0 0 0 0 127 0" result="hardAlpha"/>
<feOffset dy="1.4027"/>
<feGaussianBlur stdDeviation="1.4027"/>
<feComposite in2="hardAlpha" operator="arithmetic" k2="-1" k3="1"/>
<feColorMatrix type="matrix" values="0 0 0 0 0 0 0 0 0 0 0 0 0 0 0 0 0 0 0.5 0"/>
<feBlend mode="normal" in2="shape" result="effect1_innerShadow_17_130"/>
</filter>
</defs>
</svg>
