<svg width="136" height="126" viewBox="0 0 136 126" fill="none" xmlns="http://www.w3.org/2000/svg">
<path d="M77.0022 123.516C77.0022 123.516 42.3834 79.4207 64.7968 72.2159C71.5892 70.0325 78.7717 78.7573 78.7717 78.7573C78.7717 78.7573 66.2668 33.863 82.6728 33.863C90.9413 33.863 94.074 48.1141 94.074 48.1141C94.074 48.1141 109.883 6.89696 125.554 16.745C139.379 25.4334 118.641 56.6148 118.641 56.6148C118.641 56.6148 127.35 53.9102 131.656 56.6148C144.439 64.6422 106.219 87.2212 106.219 87.2212C106.219 87.2212 121.657 86.6226 125.554 93.5592C136.487 113.02 77.0022 123.516 77.0022 123.516ZM77.0022 123.516C80.8726 108.601 93.4416 70.4175 112.754 37.0049" stroke="#B0AEAB" stroke-width="3.02067"/>
<path d="M47.7655 62.0339C47.7655 62.0339 72.5463 18.6985 53.6802 14.6043C44.9441 12.7085 44.1622 23.4751 44.1622 23.4751C44.1622 23.4751 32.6046 -6.24568 14.3752 3.64891C0.358951 11.2567 19.0846 31.0845 19.0846 31.0845C2.20863 29.5844 -1.97279 46.3838 7.10209 54.1995C15.8718 61.7524 36.7034 62.1312 47.7655 62.0339ZM47.7655 62.0339C45.1738 50.9957 38.7233 29.7739 27.1657 18.6985" stroke="#B0AEAB" stroke-width="3.02067"/>
</svg>
