<svg width="65" height="65" viewBox="0 0 65 65" fill="none" xmlns="http://www.w3.org/2000/svg">
<path d="M43.4006 18.34L45.3756 25.8911M23.3547 24.5994L26.8109 32.4486M62.8652 31.2336C64.4624 49.7004 49.7616 62.8094 33.1392 63.0313C16.5169 63.2532 5.18873 53.554 2.70522 36.5012C0.221713 19.4484 14.3432 4.12848 30.0437 2.75375C45.7442 1.37902 61.268 12.7668 62.8652 31.2336ZM34.5747 46.8572C32.6487 42.34 34.8261 37.9203 38.5281 36.5912C42.2301 35.2621 45.5896 36.8311 47.5939 40.9251C49.5981 45.0191 47.7383 49.9498 44.3405 51.498C40.9428 53.0461 36.5007 51.3743 34.5747 46.8572Z" stroke="#B0AEAB" stroke-width="3.42171"/>
</svg>
